# xmcd CD database file
#
# Track frame offsets:
#	150
#	16577
#	28675
#	49634
#	57254
#	71916
#	83929
#	96976
#	111916
#	130698
#	140655
#	155555
#	173736
#
# Disc length: 2594 seconds
#
# Revision: 2
# Processed by: cddbd v1.5.1PL2 Copyright (c) Steve Scherf et al.
# Submitted via: CDex 1.51
#
DISCID=ae0a200d
DTITLE=Clemens Wittel Trio - Hot Jazz of the 20th to 40th
DYEAR=2004
DGENRE=Jazz
TTITLE0=Honeysuckle Rose
TTITLE1=Orys Creole Trombone
TTITLE2=These foolish things
TTITLE3=Keeping out of mischief now
TTITLE4=Lady be good
TTITLE5=Cute
TTITLE6=Squeeze me
TTITLE7=I've got my fingers crossed
TTITLE8=Don't get around much anymore
TTITLE9=Wildcat Blues
TTITLE10=Petite Fleur
TTITLE11=Chattanooga Choo Choo
TTITLE12=Besame Mucho
EXTD=YEAR: 2004
EXTT0=
EXTT1=
EXTT2=
EXTT3=
EXTT4=
EXTT5=
EXTT6=
EXTT7=
EXTT8=
EXTT9=
EXTT10=
EXTT11=
EXTT12=
PLAYORDER=
